<svg width="65" height="63" viewBox="0 0 65 63" fill="none" xmlns="http://www.w3.org/2000/svg">
<path d="M28.4058 28.2004C28.1382 27.3711 27.8975 26.5685 27.63 25.7392C27.3624 24.9099 27.1217 24.1341 26.9077 23.3583C26.6936 22.6093 26.5064 21.9137 26.3191 21.2717H26.2656C26.0249 22.422 25.7306 23.5723 25.3561 24.7226C24.9548 26.0067 24.5535 27.3443 24.1255 28.6819C23.751 30.0462 23.3497 31.3036 22.9484 32.4271H29.7433C29.5828 31.8627 29.3688 31.1966 29.128 30.4983C28.8873 29.7787 28.6465 29.0029 28.4058 28.2004ZM53.0708 0.29834H11.6057C5.31903 0.29834 0.236206 5.38116 0.236206 11.6678V51.5279C0.236206 57.8145 5.31903 62.8973 11.6057 62.8973H53.0708C59.3575 62.8973 64.4403 57.8145 64.4403 51.5279V11.6678C64.4403 5.38116 59.3575 0.29834 53.0708 0.29834ZM39.5612 44.5189H33.9674C33.7828 44.5457 33.5956 44.4119 33.5421 44.2246L31.3484 37.8577H21.3968L19.3637 44.1444C19.3102 44.3852 19.0962 44.5457 18.8554 44.5216H13.8261C13.5318 44.5216 13.4515 44.3584 13.5318 44.0401L22.1459 19.2385C22.2261 18.971 22.3064 18.6768 22.4134 18.3557C22.5204 17.794 22.5739 17.2054 22.5739 16.6169C22.5471 16.4831 22.6541 16.3494 22.7879 16.3226H29.7166C29.9306 16.3226 30.0376 16.4029 30.0644 16.5366L39.8287 44.0909C39.909 44.3825 39.8287 44.5189 39.5612 44.5189ZM48.6568 44.1176C48.6568 44.4119 48.5525 44.5457 48.3117 44.5457H43.0657C42.7982 44.5457 42.6644 44.3825 42.6644 44.1176V23.5188C42.6644 23.2513 42.7741 23.1443 43.0149 23.1443H48.3117C48.5525 23.1443 48.6568 23.2781 48.6568 23.5188V44.1176ZM48.0977 19.9608C47.7817 20.2817 47.4008 20.5313 46.9805 20.6928C46.5601 20.8542 46.1101 20.9239 45.6606 20.8972C44.7778 20.9239 43.9217 20.5761 43.277 19.9608C42.6641 19.2907 42.3377 18.4074 42.3675 17.4997C42.3407 16.5901 42.6885 15.7341 43.3279 15.1188C43.9752 14.5035 44.8313 14.1825 45.7141 14.1825C46.7601 14.1825 47.5573 14.5035 48.1485 15.1188C48.737 15.7608 49.0581 16.6169 49.0313 17.4997C49.0581 18.4092 48.7371 19.2921 48.0977 19.9608Z" fill="white"/>
</svg>
