<svg width="99" height="99" viewBox="0 0 99 99" fill="none" xmlns="http://www.w3.org/2000/svg">
<path fill-rule="evenodd" clip-rule="evenodd" d="M21.6606 2.155C40.111 0.111093 58.7307 0.111093 77.181 2.155C87.2607 3.28027 95.387 11.2156 96.5707 21.3324C98.7572 40.0409 98.7572 58.9404 96.5707 77.649C95.387 87.7658 87.2607 95.701 77.1863 96.8316C58.7342 98.8759 40.1127 98.8759 21.6606 96.8316C11.581 95.701 3.4546 87.7658 2.27094 77.6543C0.0840022 58.944 0.0840022 40.0426 2.27094 21.3324C3.4546 11.2156 11.581 3.28027 21.6606 2.155ZM45.4293 68.0682L41.873 56.9164H29.3677L25.9865 68.0682H18.5714L31.183 28.7156H40.3497L53.1416 68.0682H45.4293ZM79.5908 52.8293C79.5908 54.1722 79.474 55.2232 79.3572 55.8654H60.3232C60.4984 61.0034 64.527 63.2221 69.0812 63.2221C72.4092 63.2221 74.8031 62.755 76.9634 61.9376L78.0144 66.9005C75.5621 67.8931 72.1757 68.7105 68.0886 68.7105C58.8635 68.7105 53.4336 62.9886 53.4336 54.289C53.4336 46.4068 58.2213 38.9917 67.3296 38.9917C76.6131 38.9917 79.5908 46.5819 79.5908 52.8293Z" fill="white"/>
</svg>
