<svg width="66" height="66" viewBox="0 0 66 66" fill="none" xmlns="http://www.w3.org/2000/svg">
<mask id="mask0_165_256" style="mask-type:luminance" maskUnits="userSpaceOnUse" x="0" y="0" width="66" height="66">
<path d="M58.7255 2.31738H7.76988C4.95568 2.31738 2.67432 4.59874 2.67432 7.41295V58.3686C2.67432 61.1828 4.95568 63.4641 7.76988 63.4641H58.7255C61.5397 63.4641 63.8211 61.1828 63.8211 58.3686V7.41295C63.8211 4.59874 61.5397 2.31738 58.7255 2.31738Z" fill="white" stroke="white" stroke-width="4.16667" stroke-linejoin="round"/>
<path d="M23.0566 22.6996C23.0566 21.3481 23.5935 20.0521 24.5491 19.0965C25.5047 18.1409 26.8008 17.604 28.1522 17.604H33.2478V27.7951H28.1522C26.8008 27.7951 25.5047 27.2583 24.5491 26.3027C23.5935 25.3471 23.0566 24.051 23.0566 22.6996ZM23.0566 32.8907C23.0566 31.5393 23.5935 30.2432 24.5491 29.2876C25.5047 28.332 26.8008 27.7951 28.1522 27.7951H33.2478V37.9863H28.1522C26.8008 37.9863 25.5047 37.4494 24.5491 36.4938C23.5935 35.5382 23.0566 34.2421 23.0566 32.8907ZM23.0566 43.0818C23.0566 41.7304 23.5935 40.4343 24.5491 39.4787C25.5047 38.5231 26.8008 37.9863 28.1522 37.9863H33.2478V43.0818C33.2478 44.4332 32.7109 45.7293 31.7553 46.6849C30.7997 47.6405 29.5036 48.1774 28.1522 48.1774C26.8008 48.1774 25.5047 47.6405 24.5491 46.6849C23.5935 45.7293 23.0566 44.4332 23.0566 43.0818ZM33.2478 17.604H38.3433C39.6948 17.604 40.9908 18.1409 41.9464 19.0965C42.902 20.0521 43.4389 21.3481 43.4389 22.6996C43.4389 24.051 42.902 25.3471 41.9464 26.3027C40.9908 27.2583 39.6948 27.7951 38.3433 27.7951H33.2478V17.604Z" fill="black"/>
<path d="M33.2478 17.604H28.1522C26.8008 17.604 25.5047 18.1409 24.5491 19.0965C23.5935 20.0521 23.0566 21.3481 23.0566 22.6996C23.0566 24.051 23.5935 25.3471 24.5491 26.3027C25.5047 27.2583 26.8008 27.7951 28.1522 27.7951M33.2478 17.604V27.7951M33.2478 17.604H38.3433C39.6948 17.604 40.9908 18.1409 41.9464 19.0965C42.902 20.0521 43.4389 21.3481 43.4389 22.6996C43.4389 24.051 42.902 25.3471 41.9464 26.3027C40.9908 27.2583 39.6948 27.7951 38.3433 27.7951H33.2478M33.2478 27.7951H28.1522M33.2478 27.7951V37.9863M28.1522 27.7951C26.8008 27.7951 25.5047 28.332 24.5491 29.2876C23.5935 30.2432 23.0566 31.5393 23.0566 32.8907C23.0566 34.2421 23.5935 35.5382 24.5491 36.4938C25.5047 37.4494 26.8008 37.9863 28.1522 37.9863M33.2478 37.9863H28.1522M33.2478 37.9863V43.0818C33.2478 44.4332 32.7109 45.7293 31.7553 46.6849C30.7997 47.6405 29.5036 48.1774 28.1522 48.1774C26.8008 48.1774 25.5047 47.6405 24.5491 46.6849C23.5935 45.7293 23.0566 44.4332 23.0566 43.0818C23.0566 41.7304 23.5935 40.4343 24.5491 39.4787C25.5047 38.5231 26.8008 37.9863 28.1522 37.9863" stroke="black" stroke-width="4.16667" stroke-linejoin="round"/>
<path d="M33.2476 32.891C33.2476 31.5395 33.7844 30.2435 34.74 29.2879C35.6956 28.3323 36.9917 27.7954 38.3431 27.7954C39.6945 27.7954 40.9906 28.3323 41.9462 29.2879C42.9018 30.2435 43.4387 31.5395 43.4387 32.891C43.4387 34.2424 42.9018 35.5385 41.9462 36.4941C40.9906 37.4497 39.6945 37.9865 38.3431 37.9865C36.9917 37.9865 35.6956 37.4497 34.74 36.4941C33.7844 35.5385 33.2476 34.2424 33.2476 32.891Z" fill="black" stroke="black" stroke-width="4.16667" stroke-linejoin="round"/>
</mask>
<g mask="url(#mask0_165_256)">
<path d="M-7.5166 -7.87354H74.0124V73.6555H-7.5166V-7.87354Z" fill="white"/>
</g>
</svg>
