<svg width="412" height="442" viewBox="0 0 412 442" fill="none" xmlns="http://www.w3.org/2000/svg">
<circle cx="205.481" cy="220.49" r="13.2198" fill="#8C8C8C" stroke="#300054" stroke-width="3"/>
<path d="M67.9682 440.448C68.1555 441.255 68.9615 441.758 69.7685 441.57L82.919 438.518C83.7259 438.331 84.2283 437.525 84.041 436.718C83.8537 435.911 83.0477 435.409 82.2407 435.596L70.5514 438.309L67.8384 426.62C67.6511 425.813 66.8451 425.31 66.0381 425.498C65.2312 425.685 64.7288 426.491 64.9161 427.298L67.9682 440.448ZM204.717 220.207L203.651 221.918L206.197 223.505L207.263 221.793L204.717 220.207ZM201.517 225.342L199.383 228.766L201.929 230.352L204.063 226.929L201.517 225.342ZM197.249 232.189L195.116 235.613L197.662 237.2L199.795 233.776L197.249 232.189ZM192.982 239.036L190.848 242.46L193.394 244.047L195.528 240.623L192.982 239.036ZM188.714 245.883L186.58 249.307L189.126 250.894L191.26 247.47L188.714 245.883ZM184.447 252.731L182.313 256.154L184.859 257.741L186.993 254.317L184.447 252.731ZM180.179 259.578L178.045 263.001L180.591 264.588L182.725 261.165L180.179 259.578ZM175.912 266.425L173.778 269.849L176.324 271.435L178.458 268.012L175.912 266.425ZM171.644 273.272L169.51 276.696L172.056 278.282L174.19 274.859L171.644 273.272ZM167.377 280.119L165.243 283.543L167.789 285.13L169.923 281.706L167.377 280.119ZM163.109 286.966L160.975 290.39L163.521 291.977L165.655 288.553L163.109 286.966ZM158.841 293.814L156.708 297.237L159.254 298.824L161.387 295.4L158.841 293.814ZM154.574 300.661L152.44 304.084L154.986 305.671L157.12 302.248L154.574 300.661ZM150.306 307.508L148.173 310.931L150.719 312.518L152.852 309.095L150.306 307.508ZM146.039 314.355L143.905 317.779L146.451 319.365L148.585 315.942L146.039 314.355ZM141.771 321.202L139.638 324.626L142.184 326.213L144.317 322.789L141.771 321.202ZM137.504 328.049L135.37 331.473L137.916 333.06L140.05 329.636L137.504 328.049ZM133.236 334.897L131.103 338.32L133.649 339.907L135.782 336.483L133.236 334.897ZM128.969 341.744L126.835 345.167L129.381 346.754L131.515 343.331L128.969 341.744ZM124.701 348.591L122.567 352.014L125.113 353.601L127.247 350.178L124.701 348.591ZM120.434 355.438L118.3 358.862L120.846 360.448L122.98 357.025L120.434 355.438ZM116.166 362.285L114.032 365.709L116.578 367.296L118.712 363.872L116.166 362.285ZM111.899 369.132L109.765 372.556L112.311 374.143L114.445 370.719L111.899 369.132ZM107.631 375.98L105.497 379.403L108.043 380.99L110.177 377.566L107.631 375.98ZM103.364 382.827L101.23 386.25L103.776 387.837L105.91 384.413L103.364 382.827ZM99.096 389.674L96.9623 393.097L99.5083 394.684L101.642 391.261L99.096 389.674ZM94.8285 396.521L92.6947 399.945L95.2407 401.531L97.3745 398.108L94.8285 396.521ZM90.561 403.368L88.4272 406.792L90.9732 408.379L93.107 404.955L90.561 403.368ZM86.2934 410.215L84.1597 413.639L86.7057 415.226L88.8394 411.802L86.2934 410.215ZM82.0259 417.063L79.8921 420.486L82.4381 422.073L84.5719 418.649L82.0259 417.063ZM77.7584 423.91L75.6246 427.333L78.1706 428.92L80.3044 425.496L77.7584 423.91ZM73.4908 430.757L71.3571 434.18L73.9031 435.767L76.0368 432.344L73.4908 430.757ZM69.2233 437.604L68.1564 439.316L70.7024 440.903L71.7693 439.191L69.2233 437.604ZM67.9682 440.448C68.1555 441.255 68.9615 441.758 69.7685 441.57L82.919 438.518C83.7259 438.331 84.2283 437.525 84.041 436.718C83.8537 435.911 83.0477 435.409 82.2407 435.596L70.5514 438.309L67.8384 426.62C67.6511 425.813 66.8451 425.31 66.0381 425.498C65.2312 425.685 64.7288 426.491 64.9161 427.298L67.9682 440.448ZM204.717 220.207L203.651 221.918L206.197 223.505L207.263 221.793L204.717 220.207ZM201.517 225.342L199.383 228.766L201.929 230.352L204.063 226.929L201.517 225.342ZM197.249 232.189L195.116 235.613L197.662 237.2L199.795 233.776L197.249 232.189ZM192.982 239.036L190.848 242.46L193.394 244.047L195.528 240.623L192.982 239.036ZM188.714 245.883L186.58 249.307L189.126 250.894L191.26 247.47L188.714 245.883ZM184.447 252.731L182.313 256.154L184.859 257.741L186.993 254.317L184.447 252.731ZM180.179 259.578L178.045 263.001L180.591 264.588L182.725 261.165L180.179 259.578ZM175.912 266.425L173.778 269.849L176.324 271.435L178.458 268.012L175.912 266.425ZM171.644 273.272L169.51 276.696L172.056 278.282L174.19 274.859L171.644 273.272ZM167.377 280.119L165.243 283.543L167.789 285.13L169.923 281.706L167.377 280.119ZM163.109 286.966L160.975 290.39L163.521 291.977L165.655 288.553L163.109 286.966ZM158.841 293.814L156.708 297.237L159.254 298.824L161.387 295.4L158.841 293.814ZM154.574 300.661L152.44 304.084L154.986 305.671L157.12 302.248L154.574 300.661ZM150.306 307.508L148.173 310.931L150.719 312.518L152.852 309.095L150.306 307.508ZM146.039 314.355L143.905 317.779L146.451 319.365L148.585 315.942L146.039 314.355ZM141.771 321.202L139.638 324.626L142.184 326.213L144.317 322.789L141.771 321.202ZM137.504 328.049L135.37 331.473L137.916 333.06L140.05 329.636L137.504 328.049ZM133.236 334.897L131.103 338.32L133.649 339.907L135.782 336.483L133.236 334.897ZM128.969 341.744L126.835 345.167L129.381 346.754L131.515 343.331L128.969 341.744ZM124.701 348.591L122.567 352.014L125.113 353.601L127.247 350.178L124.701 348.591ZM120.434 355.438L118.3 358.862L120.846 360.448L122.98 357.025L120.434 355.438ZM116.166 362.285L114.032 365.709L116.578 367.296L118.712 363.872L116.166 362.285ZM111.899 369.132L109.765 372.556L112.311 374.143L114.445 370.719L111.899 369.132ZM107.631 375.98L105.497 379.403L108.043 380.99L110.177 377.566L107.631 375.98ZM103.364 382.827L101.23 386.25L103.776 387.837L105.91 384.413L103.364 382.827ZM99.096 389.674L96.9623 393.097L99.5083 394.684L101.642 391.261L99.096 389.674ZM94.8285 396.521L92.6947 399.945L95.2407 401.531L97.3745 398.108L94.8285 396.521ZM90.561 403.368L88.4272 406.792L90.9732 408.379L93.107 404.955L90.561 403.368ZM86.2934 410.215L84.1597 413.639L86.7057 415.226L88.8394 411.802L86.2934 410.215ZM82.0259 417.063L79.8921 420.486L82.4381 422.073L84.5719 418.649L82.0259 417.063ZM77.7584 423.91L75.6246 427.333L78.1706 428.92L80.3044 425.496L77.7584 423.91ZM73.4908 430.757L71.3571 434.18L73.9031 435.767L76.0368 432.344L73.4908 430.757ZM69.2233 437.604L68.1564 439.316L70.7024 440.903L71.7693 439.191L69.2233 437.604Z" fill="#300054"/>
<path d="M67.9682 1.55165C68.1555 0.744673 68.9615 0.242319 69.7685 0.429611L82.919 3.48173C83.7259 3.66903 84.2283 4.47504 84.041 5.28201C83.8537 6.08899 83.0477 6.59134 82.2407 6.40405L70.5514 3.69106L67.8384 15.3804C67.6511 16.1873 66.8451 16.6897 66.0381 16.5024C65.2312 16.3151 64.7288 15.5091 64.9161 14.7021L67.9682 1.55165ZM204.717 221.793L203.651 220.082L206.197 218.495L207.263 220.207L204.717 221.793ZM201.517 216.658L199.383 213.234L201.929 211.648L204.063 215.071L201.517 216.658ZM197.249 209.811L195.116 206.387L197.662 204.8L199.795 208.224L197.249 209.811ZM192.982 202.964L190.848 199.54L193.394 197.953L195.528 201.377L192.982 202.964ZM188.714 196.117L186.58 192.693L189.126 191.106L191.26 194.53L188.714 196.117ZM184.447 189.269L182.313 185.846L184.859 184.259L186.993 187.683L184.447 189.269ZM180.179 182.422L178.045 178.999L180.591 177.412L182.725 180.835L180.179 182.422ZM175.912 175.575L173.778 172.151L176.324 170.565L178.458 173.988L175.912 175.575ZM171.644 168.728L169.51 165.304L172.056 163.718L174.19 167.141L171.644 168.728ZM167.377 161.881L165.243 158.457L167.789 156.87L169.923 160.294L167.377 161.881ZM163.109 155.034L160.975 151.61L163.521 150.023L165.655 153.447L163.109 155.034ZM158.841 148.186L156.708 144.763L159.254 143.176L161.387 146.6L158.841 148.186ZM154.574 141.339L152.44 137.916L154.986 136.329L157.12 139.752L154.574 141.339ZM150.306 134.492L148.173 131.069L150.719 129.482L152.852 132.905L150.306 134.492ZM146.039 127.645L143.905 124.221L146.451 122.635L148.585 126.058L146.039 127.645ZM141.771 120.798L139.638 117.374L142.184 115.787L144.317 119.211L141.771 120.798ZM137.504 113.951L135.37 110.527L137.916 108.94L140.05 112.364L137.504 113.951ZM133.236 107.103L131.103 103.68L133.649 102.093L135.782 105.517L133.236 107.103ZM128.969 100.256L126.835 96.8327L129.381 95.2459L131.515 98.6695L128.969 100.256ZM124.701 93.4091L122.567 89.9855L125.113 88.3987L127.247 91.8223L124.701 93.4091ZM120.434 86.5619L118.3 83.1384L120.846 81.5516L122.98 84.9751L120.434 86.5619ZM116.166 79.7148L114.032 76.2912L116.578 74.7044L118.712 78.128L116.166 79.7148ZM111.899 72.8676L109.765 69.444L112.311 67.8572L114.445 71.2808L111.899 72.8676ZM107.631 66.0205L105.497 62.5969L108.043 61.0101L110.177 64.4337L107.631 66.0205ZM103.364 59.1733L101.23 55.7497L103.776 54.1629L105.91 57.5865L103.364 59.1733ZM99.096 52.3261L96.9623 48.9026L99.5083 47.3158L101.642 50.7393L99.096 52.3261ZM94.8285 45.479L92.6947 42.0554L95.2407 40.4686L97.3745 43.8922L94.8285 45.479ZM90.561 38.6318L88.4272 35.2082L90.9732 33.6214L93.107 37.045L90.561 38.6318ZM86.2934 31.7847L84.1597 28.3611L86.7057 26.7743L88.8394 30.1979L86.2934 31.7847ZM82.0259 24.9375L79.8921 21.5139L82.4381 19.9271L84.5719 23.3507L82.0259 24.9375ZM77.7584 18.0903L75.6246 14.6668L78.1706 13.08L80.3044 16.5035L77.7584 18.0903ZM73.4908 11.2432L71.3571 7.81959L73.9031 6.23279L76.0368 9.65637L73.4908 11.2432ZM69.2233 4.39601L68.1564 2.68418L70.7024 1.09738L71.7693 2.80921L69.2233 4.39601ZM67.9682 1.55165C68.1555 0.744673 68.9615 0.242319 69.7685 0.429611L82.919 3.48173C83.7259 3.66903 84.2283 4.47504 84.041 5.28201C83.8537 6.08899 83.0477 6.59134 82.2407 6.40405L70.5514 3.69106L67.8384 15.3804C67.6511 16.1873 66.8451 16.6897 66.0381 16.5024C65.2312 16.3151 64.7288 15.5091 64.9161 14.7021L67.9682 1.55165ZM204.717 221.793L203.651 220.082L206.197 218.495L207.263 220.207L204.717 221.793ZM201.517 216.658L199.383 213.234L201.929 211.648L204.063 215.071L201.517 216.658ZM197.249 209.811L195.116 206.387L197.662 204.8L199.795 208.224L197.249 209.811ZM192.982 202.964L190.848 199.54L193.394 197.953L195.528 201.377L192.982 202.964ZM188.714 196.117L186.58 192.693L189.126 191.106L191.26 194.53L188.714 196.117ZM184.447 189.269L182.313 185.846L184.859 184.259L186.993 187.683L184.447 189.269ZM180.179 182.422L178.045 178.999L180.591 177.412L182.725 180.835L180.179 182.422ZM175.912 175.575L173.778 172.151L176.324 170.565L178.458 173.988L175.912 175.575ZM171.644 168.728L169.51 165.304L172.056 163.718L174.19 167.141L171.644 168.728ZM167.377 161.881L165.243 158.457L167.789 156.87L169.923 160.294L167.377 161.881ZM163.109 155.034L160.975 151.61L163.521 150.023L165.655 153.447L163.109 155.034ZM158.841 148.186L156.708 144.763L159.254 143.176L161.387 146.6L158.841 148.186ZM154.574 141.339L152.44 137.916L154.986 136.329L157.12 139.752L154.574 141.339ZM150.306 134.492L148.173 131.069L150.719 129.482L152.852 132.905L150.306 134.492ZM146.039 127.645L143.905 124.221L146.451 122.635L148.585 126.058L146.039 127.645ZM141.771 120.798L139.638 117.374L142.184 115.787L144.317 119.211L141.771 120.798ZM137.504 113.951L135.37 110.527L137.916 108.94L140.05 112.364L137.504 113.951ZM133.236 107.103L131.103 103.68L133.649 102.093L135.782 105.517L133.236 107.103ZM128.969 100.256L126.835 96.8327L129.381 95.2459L131.515 98.6695L128.969 100.256ZM124.701 93.4091L122.567 89.9855L125.113 88.3987L127.247 91.8223L124.701 93.4091ZM120.434 86.5619L118.3 83.1384L120.846 81.5516L122.98 84.9751L120.434 86.5619ZM116.166 79.7148L114.032 76.2912L116.578 74.7044L118.712 78.128L116.166 79.7148ZM111.899 72.8676L109.765 69.444L112.311 67.8572L114.445 71.2808L111.899 72.8676ZM107.631 66.0205L105.497 62.5969L108.043 61.0101L110.177 64.4337L107.631 66.0205ZM103.364 59.1733L101.23 55.7497L103.776 54.1629L105.91 57.5865L103.364 59.1733ZM99.096 52.3261L96.9623 48.9026L99.5083 47.3158L101.642 50.7393L99.096 52.3261ZM94.8285 45.479L92.6947 42.0554L95.2407 40.4686L97.3745 43.8922L94.8285 45.479ZM90.561 38.6318L88.4272 35.2082L90.9732 33.6214L93.107 37.045L90.561 38.6318ZM86.2934 31.7847L84.1597 28.3611L86.7057 26.7743L88.8394 30.1979L86.2934 31.7847ZM82.0259 24.9375L79.8921 21.5139L82.4381 19.9271L84.5719 23.3507L82.0259 24.9375ZM77.7584 18.0903L75.6246 14.6668L78.1706 13.08L80.3044 16.5035L77.7584 18.0903ZM73.4908 11.2432L71.3571 7.81959L73.9031 6.23279L76.0368 9.65637L73.4908 11.2432ZM69.2233 4.39601L68.1564 2.68418L70.7024 1.09738L71.7693 2.80921L69.2233 4.39601Z" fill="#300054"/>
<path d="M1.10728 219.939C0.521484 220.525 0.521484 221.475 1.10728 222.061L10.6532 231.607C11.239 232.192 12.1888 232.192 12.7745 231.607C13.3603 231.021 13.3603 230.071 12.7745 229.485L4.28926 221L12.7745 212.515C13.3603 211.929 13.3603 210.979 12.7745 210.393C12.1888 209.808 11.239 209.808 10.6532 210.393L1.10728 219.939ZM205.99 219.5H203.952V222.5H205.99V219.5ZM199.876 219.5H195.799V222.5H199.876V219.5ZM191.723 219.5H187.646V222.5H191.723V219.5ZM183.57 219.5H179.494V222.5H183.57V219.5ZM175.417 219.5H171.341V222.5H175.417V219.5ZM167.264 219.5H163.188V222.5H167.264V219.5ZM159.111 219.5H155.035V222.5H159.111V219.5ZM150.958 219.5H146.882V222.5H150.958V219.5ZM142.805 219.5H138.729V222.5H142.805V219.5ZM134.653 219.5H130.576V222.5H134.653V219.5ZM126.5 219.5H122.423V222.5H126.5V219.5ZM118.347 219.5H114.27V222.5H118.347V219.5ZM110.194 219.5H106.117V222.5H110.194V219.5ZM102.041 219.5H97.9645V222.5H102.041V219.5ZM93.888 219.5H89.8116V222.5H93.888V219.5ZM85.7351 219.5H81.6587V222.5H85.7351V219.5ZM77.5822 219.5H73.5058V222.5H77.5822V219.5ZM69.4293 219.5H65.3529V222.5H69.4293V219.5ZM61.2764 219.5H57.2V222.5H61.2764V219.5ZM53.1236 219.5H49.0471V222.5H53.1236V219.5ZM44.9707 219.5H40.8942V222.5H44.9707V219.5ZM36.8178 219.5H32.7413V222.5H36.8178V219.5ZM28.6649 219.5H24.5884V222.5H28.6649V219.5ZM20.512 219.5H16.4355V222.5H20.512V219.5ZM12.3591 219.5H8.28264V222.5H12.3591V219.5ZM4.20619 219.5H2.16794V222.5H4.20619V219.5ZM1.10728 219.939C0.521484 220.525 0.521484 221.475 1.10728 222.061L10.6532 231.607C11.239 232.192 12.1888 232.192 12.7745 231.607C13.3603 231.021 13.3603 230.071 12.7745 229.485L4.28926 221L12.7745 212.515C13.3603 211.929 13.3603 210.979 12.7745 210.393C12.1888 209.808 11.239 209.808 10.6532 210.393L1.10728 219.939ZM205.99 219.5H203.952V222.5H205.99V219.5ZM199.876 219.5H195.799V222.5H199.876V219.5ZM191.723 219.5H187.646V222.5H191.723V219.5ZM183.57 219.5H179.494V222.5H183.57V219.5ZM175.417 219.5H171.341V222.5H175.417V219.5ZM167.264 219.5H163.188V222.5H167.264V219.5ZM159.111 219.5H155.035V222.5H159.111V219.5ZM150.958 219.5H146.882V222.5H150.958V219.5ZM142.805 219.5H138.729V222.5H142.805V219.5ZM134.653 219.5H130.576V222.5H134.653V219.5ZM126.5 219.5H122.423V222.5H126.5V219.5ZM118.347 219.5H114.27V222.5H118.347V219.5ZM110.194 219.5H106.117V222.5H110.194V219.5ZM102.041 219.5H97.9645V222.5H102.041V219.5ZM93.888 219.5H89.8116V222.5H93.888V219.5ZM85.7351 219.5H81.6587V222.5H85.7351V219.5ZM77.5822 219.5H73.5058V222.5H77.5822V219.5ZM69.4293 219.5H65.3529V222.5H69.4293V219.5ZM61.2764 219.5H57.2V222.5H61.2764V219.5ZM53.1236 219.5H49.0471V222.5H53.1236V219.5ZM44.9707 219.5H40.8942V222.5H44.9707V219.5ZM36.8178 219.5H32.7413V222.5H36.8178V219.5ZM28.6649 219.5H24.5884V222.5H28.6649V219.5ZM20.512 219.5H16.4355V222.5H20.512V219.5ZM12.3591 219.5H8.28264V222.5H12.3591V219.5ZM4.20619 219.5H2.16794V222.5H4.20619V219.5Z" fill="#300054"/>
<path d="M344.013 440.448C343.825 441.255 343.019 441.758 342.212 441.57L329.062 438.518C328.255 438.331 327.753 437.525 327.94 436.718C328.127 435.911 328.933 435.409 329.74 435.596L341.43 438.309L344.143 426.62C344.33 425.813 345.136 425.31 345.943 425.498C346.75 425.685 347.252 426.491 347.065 427.298L344.013 440.448ZM207.263 220.207L208.33 221.918L205.784 223.505L204.717 221.793L207.263 220.207ZM210.464 225.342L212.598 228.766L210.052 230.352L207.918 226.929L210.464 225.342ZM214.732 232.189L216.865 235.613L214.319 237.2L212.186 233.776L214.732 232.189ZM218.999 239.036L221.133 242.46L218.587 244.047L216.453 240.623L218.999 239.036ZM223.267 245.883L225.4 249.307L222.855 250.894L220.721 247.47L223.267 245.883ZM227.534 252.731L229.668 256.154L227.122 257.741L224.988 254.317L227.534 252.731ZM231.802 259.578L233.936 263.001L231.39 264.588L229.256 261.165L231.802 259.578ZM236.069 266.425L238.203 269.849L235.657 271.435L233.523 268.012L236.069 266.425ZM240.337 273.272L242.471 276.696L239.925 278.282L237.791 274.859L240.337 273.272ZM244.604 280.119L246.738 283.543L244.192 285.13L242.058 281.706L244.604 280.119ZM248.872 286.966L251.006 290.39L248.46 291.977L246.326 288.553L248.872 286.966ZM253.139 293.814L255.273 297.237L252.727 298.824L250.593 295.4L253.139 293.814ZM257.407 300.661L259.541 304.084L256.995 305.671L254.861 302.248L257.407 300.661ZM261.675 307.508L263.808 310.931L261.262 312.518L259.129 309.095L261.675 307.508ZM265.942 314.355L268.076 317.779L265.53 319.365L263.396 315.942L265.942 314.355ZM270.21 321.202L272.343 324.626L269.797 326.213L267.664 322.789L270.21 321.202ZM274.477 328.049L276.611 331.473L274.065 333.06L271.931 329.636L274.477 328.049ZM278.745 334.897L280.878 338.32L278.332 339.907L276.199 336.483L278.745 334.897ZM283.012 341.744L285.146 345.167L282.6 346.754L280.466 343.331L283.012 341.744ZM287.28 348.591L289.413 352.014L286.868 353.601L284.734 350.178L287.28 348.591ZM291.547 355.438L293.681 358.862L291.135 360.448L289.001 357.025L291.547 355.438ZM295.815 362.285L297.949 365.709L295.403 367.296L293.269 363.872L295.815 362.285ZM300.082 369.132L302.216 372.556L299.67 374.143L297.536 370.719L300.082 369.132ZM304.35 375.98L306.484 379.403L303.938 380.99L301.804 377.566L304.35 375.98ZM308.617 382.827L310.751 386.25L308.205 387.837L306.071 384.413L308.617 382.827ZM312.885 389.674L315.019 393.097L312.473 394.684L310.339 391.261L312.885 389.674ZM317.152 396.521L319.286 399.945L316.74 401.531L314.606 398.108L317.152 396.521ZM321.42 403.368L323.554 406.792L321.008 408.379L318.874 404.955L321.42 403.368ZM325.688 410.215L327.821 413.639L325.275 415.226L323.142 411.802L325.688 410.215ZM329.955 417.063L332.089 420.486L329.543 422.073L327.409 418.649L329.955 417.063ZM334.223 423.91L336.356 427.333L333.81 428.92L331.677 425.496L334.223 423.91ZM338.49 430.757L340.624 434.18L338.078 435.767L335.944 432.344L338.49 430.757ZM342.758 437.604L343.825 439.316L341.279 440.903L340.212 439.191L342.758 437.604ZM344.013 440.448C343.825 441.255 343.019 441.758 342.212 441.57L329.062 438.518C328.255 438.331 327.753 437.525 327.94 436.718C328.127 435.911 328.933 435.409 329.74 435.596L341.43 438.309L344.143 426.62C344.33 425.813 345.136 425.31 345.943 425.498C346.75 425.685 347.252 426.491 347.065 427.298L344.013 440.448ZM207.263 220.207L208.33 221.918L205.784 223.505L204.717 221.793L207.263 220.207ZM210.464 225.342L212.598 228.766L210.052 230.352L207.918 226.929L210.464 225.342ZM214.732 232.189L216.865 235.613L214.319 237.2L212.186 233.776L214.732 232.189ZM218.999 239.036L221.133 242.46L218.587 244.047L216.453 240.623L218.999 239.036ZM223.267 245.883L225.4 249.307L222.855 250.894L220.721 247.47L223.267 245.883ZM227.534 252.731L229.668 256.154L227.122 257.741L224.988 254.317L227.534 252.731ZM231.802 259.578L233.936 263.001L231.39 264.588L229.256 261.165L231.802 259.578ZM236.069 266.425L238.203 269.849L235.657 271.435L233.523 268.012L236.069 266.425ZM240.337 273.272L242.471 276.696L239.925 278.282L237.791 274.859L240.337 273.272ZM244.604 280.119L246.738 283.543L244.192 285.13L242.058 281.706L244.604 280.119ZM248.872 286.966L251.006 290.39L248.46 291.977L246.326 288.553L248.872 286.966ZM253.139 293.814L255.273 297.237L252.727 298.824L250.593 295.4L253.139 293.814ZM257.407 300.661L259.541 304.084L256.995 305.671L254.861 302.248L257.407 300.661ZM261.675 307.508L263.808 310.931L261.262 312.518L259.129 309.095L261.675 307.508ZM265.942 314.355L268.076 317.779L265.53 319.365L263.396 315.942L265.942 314.355ZM270.21 321.202L272.343 324.626L269.797 326.213L267.664 322.789L270.21 321.202ZM274.477 328.049L276.611 331.473L274.065 333.06L271.931 329.636L274.477 328.049ZM278.745 334.897L280.878 338.32L278.332 339.907L276.199 336.483L278.745 334.897ZM283.012 341.744L285.146 345.167L282.6 346.754L280.466 343.331L283.012 341.744ZM287.28 348.591L289.413 352.014L286.868 353.601L284.734 350.178L287.28 348.591ZM291.547 355.438L293.681 358.862L291.135 360.448L289.001 357.025L291.547 355.438ZM295.815 362.285L297.949 365.709L295.403 367.296L293.269 363.872L295.815 362.285ZM300.082 369.132L302.216 372.556L299.67 374.143L297.536 370.719L300.082 369.132ZM304.35 375.98L306.484 379.403L303.938 380.99L301.804 377.566L304.35 375.98ZM308.617 382.827L310.751 386.25L308.205 387.837L306.071 384.413L308.617 382.827ZM312.885 389.674L315.019 393.097L312.473 394.684L310.339 391.261L312.885 389.674ZM317.152 396.521L319.286 399.945L316.74 401.531L314.606 398.108L317.152 396.521ZM321.42 403.368L323.554 406.792L321.008 408.379L318.874 404.955L321.42 403.368ZM325.688 410.215L327.821 413.639L325.275 415.226L323.142 411.802L325.688 410.215ZM329.955 417.063L332.089 420.486L329.543 422.073L327.409 418.649L329.955 417.063ZM334.223 423.91L336.356 427.333L333.81 428.92L331.677 425.496L334.223 423.91ZM338.49 430.757L340.624 434.18L338.078 435.767L335.944 432.344L338.49 430.757ZM342.758 437.604L343.825 439.316L341.279 440.903L340.212 439.191L342.758 437.604Z" fill="#300054"/>
<path d="M344.013 1.55165C343.825 0.744673 343.019 0.242319 342.212 0.429611L329.062 3.48173C328.255 3.66903 327.753 4.47504 327.94 5.28201C328.127 6.08899 328.933 6.59134 329.74 6.40405L341.43 3.69106L344.143 15.3804C344.33 16.1873 345.136 16.6897 345.943 16.5024C346.75 16.3151 347.252 15.5091 347.065 14.7021L344.013 1.55165ZM207.263 221.793L208.33 220.082L205.784 218.495L204.717 220.207L207.263 221.793ZM210.464 216.658L212.598 213.234L210.052 211.648L207.918 215.071L210.464 216.658ZM214.732 209.811L216.865 206.387L214.319 204.8L212.186 208.224L214.732 209.811ZM218.999 202.964L221.133 199.54L218.587 197.953L216.453 201.377L218.999 202.964ZM223.267 196.117L225.4 192.693L222.855 191.106L220.721 194.53L223.267 196.117ZM227.534 189.269L229.668 185.846L227.122 184.259L224.988 187.683L227.534 189.269ZM231.802 182.422L233.936 178.999L231.39 177.412L229.256 180.835L231.802 182.422ZM236.069 175.575L238.203 172.151L235.657 170.565L233.523 173.988L236.069 175.575ZM240.337 168.728L242.471 165.304L239.925 163.718L237.791 167.141L240.337 168.728ZM244.604 161.881L246.738 158.457L244.192 156.87L242.058 160.294L244.604 161.881ZM248.872 155.034L251.006 151.61L248.46 150.023L246.326 153.447L248.872 155.034ZM253.139 148.186L255.273 144.763L252.727 143.176L250.593 146.6L253.139 148.186ZM257.407 141.339L259.541 137.916L256.995 136.329L254.861 139.752L257.407 141.339ZM261.675 134.492L263.808 131.069L261.262 129.482L259.129 132.905L261.675 134.492ZM265.942 127.645L268.076 124.221L265.53 122.635L263.396 126.058L265.942 127.645ZM270.21 120.798L272.343 117.374L269.797 115.787L267.664 119.211L270.21 120.798ZM274.477 113.951L276.611 110.527L274.065 108.94L271.931 112.364L274.477 113.951ZM278.745 107.103L280.878 103.68L278.332 102.093L276.199 105.517L278.745 107.103ZM283.012 100.256L285.146 96.8327L282.6 95.2459L280.466 98.6695L283.012 100.256ZM287.28 93.4091L289.413 89.9855L286.868 88.3987L284.734 91.8223L287.28 93.4091ZM291.547 86.5619L293.681 83.1384L291.135 81.5516L289.001 84.9751L291.547 86.5619ZM295.815 79.7148L297.949 76.2912L295.403 74.7044L293.269 78.128L295.815 79.7148ZM300.082 72.8676L302.216 69.444L299.67 67.8572L297.536 71.2808L300.082 72.8676ZM304.35 66.0205L306.484 62.5969L303.938 61.0101L301.804 64.4337L304.35 66.0205ZM308.617 59.1733L310.751 55.7497L308.205 54.1629L306.071 57.5865L308.617 59.1733ZM312.885 52.3261L315.019 48.9026L312.473 47.3158L310.339 50.7393L312.885 52.3261ZM317.152 45.479L319.286 42.0554L316.74 40.4686L314.606 43.8922L317.152 45.479ZM321.42 38.6318L323.554 35.2082L321.008 33.6214L318.874 37.045L321.42 38.6318ZM325.688 31.7847L327.821 28.3611L325.275 26.7743L323.142 30.1979L325.688 31.7847ZM329.955 24.9375L332.089 21.5139L329.543 19.9271L327.409 23.3507L329.955 24.9375ZM334.223 18.0903L336.356 14.6668L333.81 13.08L331.677 16.5035L334.223 18.0903ZM338.49 11.2432L340.624 7.81959L338.078 6.23279L335.944 9.65637L338.49 11.2432ZM342.758 4.39601L343.825 2.68418L341.279 1.09738L340.212 2.80921L342.758 4.39601ZM344.013 1.55165C343.825 0.744673 343.019 0.242319 342.212 0.429611L329.062 3.48173C328.255 3.66903 327.753 4.47504 327.94 5.28201C328.127 6.08899 328.933 6.59134 329.74 6.40405L341.43 3.69106L344.143 15.3804C344.33 16.1873 345.136 16.6897 345.943 16.5024C346.75 16.3151 347.252 15.5091 347.065 14.7021L344.013 1.55165ZM207.263 221.793L208.33 220.082L205.784 218.495L204.717 220.207L207.263 221.793ZM210.464 216.658L212.598 213.234L210.052 211.648L207.918 215.071L210.464 216.658ZM214.732 209.811L216.865 206.387L214.319 204.8L212.186 208.224L214.732 209.811ZM218.999 202.964L221.133 199.54L218.587 197.953L216.453 201.377L218.999 202.964ZM223.267 196.117L225.4 192.693L222.855 191.106L220.721 194.53L223.267 196.117ZM227.534 189.269L229.668 185.846L227.122 184.259L224.988 187.683L227.534 189.269ZM231.802 182.422L233.936 178.999L231.39 177.412L229.256 180.835L231.802 182.422ZM236.069 175.575L238.203 172.151L235.657 170.565L233.523 173.988L236.069 175.575ZM240.337 168.728L242.471 165.304L239.925 163.718L237.791 167.141L240.337 168.728ZM244.604 161.881L246.738 158.457L244.192 156.87L242.058 160.294L244.604 161.881ZM248.872 155.034L251.006 151.61L248.46 150.023L246.326 153.447L248.872 155.034ZM253.139 148.186L255.273 144.763L252.727 143.176L250.593 146.6L253.139 148.186ZM257.407 141.339L259.541 137.916L256.995 136.329L254.861 139.752L257.407 141.339ZM261.675 134.492L263.808 131.069L261.262 129.482L259.129 132.905L261.675 134.492ZM265.942 127.645L268.076 124.221L265.53 122.635L263.396 126.058L265.942 127.645ZM270.21 120.798L272.343 117.374L269.797 115.787L267.664 119.211L270.21 120.798ZM274.477 113.951L276.611 110.527L274.065 108.94L271.931 112.364L274.477 113.951ZM278.745 107.103L280.878 103.68L278.332 102.093L276.199 105.517L278.745 107.103ZM283.012 100.256L285.146 96.8327L282.6 95.2459L280.466 98.6695L283.012 100.256ZM287.28 93.4091L289.413 89.9855L286.868 88.3987L284.734 91.8223L287.28 93.4091ZM291.547 86.5619L293.681 83.1384L291.135 81.5516L289.001 84.9751L291.547 86.5619ZM295.815 79.7148L297.949 76.2912L295.403 74.7044L293.269 78.128L295.815 79.7148ZM300.082 72.8676L302.216 69.444L299.67 67.8572L297.536 71.2808L300.082 72.8676ZM304.35 66.0205L306.484 62.5969L303.938 61.0101L301.804 64.4337L304.35 66.0205ZM308.617 59.1733L310.751 55.7497L308.205 54.1629L306.071 57.5865L308.617 59.1733ZM312.885 52.3261L315.019 48.9026L312.473 47.3158L310.339 50.7393L312.885 52.3261ZM317.152 45.479L319.286 42.0554L316.74 40.4686L314.606 43.8922L317.152 45.479ZM321.42 38.6318L323.554 35.2082L321.008 33.6214L318.874 37.045L321.42 38.6318ZM325.688 31.7847L327.821 28.3611L325.275 26.7743L323.142 30.1979L325.688 31.7847ZM329.955 24.9375L332.089 21.5139L329.543 19.9271L327.409 23.3507L329.955 24.9375ZM334.223 18.0903L336.356 14.6668L333.81 13.08L331.677 16.5035L334.223 18.0903ZM338.49 11.2432L340.624 7.81959L338.078 6.23279L335.944 9.65637L338.49 11.2432ZM342.758 4.39601L343.825 2.68418L341.279 1.09738L340.212 2.80921L342.758 4.39601Z" fill="#300054"/>
<path d="M410.874 219.939C411.459 220.525 411.459 221.475 410.874 222.061L401.328 231.607C400.742 232.192 399.792 232.192 399.206 231.607C398.621 231.021 398.621 230.071 399.206 229.485L407.692 221L399.206 212.515C398.621 211.929 398.621 210.979 399.206 210.393C399.792 209.808 400.742 209.808 401.328 210.393L410.874 219.939ZM205.99 219.5H208.029V222.5H205.99V219.5ZM212.105 219.5H216.182V222.5H212.105V219.5ZM220.258 219.5H224.335V222.5H220.258V219.5ZM228.411 219.5H232.487V222.5H228.411V219.5ZM236.564 219.5H240.64V222.5H236.564V219.5ZM244.717 219.5H248.793V222.5H244.717V219.5ZM252.87 219.5H256.946V222.5H252.87V219.5ZM261.023 219.5H265.099V222.5H261.023V219.5ZM269.175 219.5H273.252V222.5H269.175V219.5ZM277.328 219.5H281.405V222.5H277.328V219.5ZM285.481 219.5H289.558V222.5H285.481V219.5ZM293.634 219.5H297.711V222.5H293.634V219.5ZM301.787 219.5H305.864V222.5H301.787V219.5ZM309.94 219.5H314.016V222.5H309.94V219.5ZM318.093 219.5H322.169V222.5H318.093V219.5ZM326.246 219.5H330.322V222.5H326.246V219.5ZM334.399 219.5H338.475V222.5H334.399V219.5ZM342.552 219.5H346.628V222.5H342.552V219.5ZM350.705 219.5H354.781V222.5H350.705V219.5ZM358.857 219.5H362.934V222.5H358.857V219.5ZM367.01 219.5H371.087V222.5H367.01V219.5ZM375.163 219.5H379.24V222.5H375.163V219.5ZM383.316 219.5H387.393V222.5H383.316V219.5ZM391.469 219.5H395.545V222.5H391.469V219.5ZM399.622 219.5H403.698V222.5H399.622V219.5ZM407.775 219.5H409.813V222.5H407.775V219.5ZM410.874 219.939C411.459 220.525 411.459 221.475 410.874 222.061L401.328 231.607C400.742 232.192 399.792 232.192 399.206 231.607C398.621 231.021 398.621 230.071 399.206 229.485L407.692 221L399.206 212.515C398.621 211.929 398.621 210.979 399.206 210.393C399.792 209.808 400.742 209.808 401.328 210.393L410.874 219.939ZM205.99 219.5H208.029V222.5H205.99V219.5ZM212.105 219.5H216.182V222.5H212.105V219.5ZM220.258 219.5H224.335V222.5H220.258V219.5ZM228.411 219.5H232.487V222.5H228.411V219.5ZM236.564 219.5H240.64V222.5H236.564V219.5ZM244.717 219.5H248.793V222.5H244.717V219.5ZM252.87 219.5H256.946V222.5H252.87V219.5ZM261.023 219.5H265.099V222.5H261.023V219.5ZM269.175 219.5H273.252V222.5H269.175V219.5ZM277.328 219.5H281.405V222.5H277.328V219.5ZM285.481 219.5H289.558V222.5H285.481V219.5ZM293.634 219.5H297.711V222.5H293.634V219.5ZM301.787 219.5H305.864V222.5H301.787V219.5ZM309.94 219.5H314.016V222.5H309.94V219.5ZM318.093 219.5H322.169V222.5H318.093V219.5ZM326.246 219.5H330.322V222.5H326.246V219.5ZM334.399 219.5H338.475V222.5H334.399V219.5ZM342.552 219.5H346.628V222.5H342.552V219.5ZM350.705 219.5H354.781V222.5H350.705V219.5ZM358.857 219.5H362.934V222.5H358.857V219.5ZM367.01 219.5H371.087V222.5H367.01V219.5ZM375.163 219.5H379.24V222.5H375.163V219.5ZM383.316 219.5H387.393V222.5H383.316V219.5ZM391.469 219.5H395.545V222.5H391.469V219.5ZM399.622 219.5H403.698V222.5H399.622V219.5ZM407.775 219.5H409.813V222.5H407.775V219.5Z" fill="#300054"/>
</svg>
