<svg width="102" height="101" viewBox="0 0 102 101" fill="none" xmlns="http://www.w3.org/2000/svg">
<g clip-path="url(#clip0_165_267)">
<path d="M58.1342 2.72217V12.6817H98.4309C100.163 12.6817 101.566 14.0855 101.566 15.8175V84.368C101.566 86.0997 100.163 87.5035 98.4309 87.5035H58.1342V98.2994L0.674316 88.1303V12.8733L58.1342 2.72217ZM39.0671 44.5402C39.2604 41.4784 38.5335 38.3745 36.4739 36.3894C34.0229 34.0265 32.3889 33.6127 25.3819 33.9755L19.6897 34.2703V66.4208H25.4772V55.2598C36.1547 56.1712 38.6297 50.012 39.0671 44.5402ZM32.4151 44.5402C32.1127 49.7645 29.693 49.5446 25.4768 49.4725V39.7581C30.2154 39.591 32.2609 40.2401 32.4151 44.5402ZM93.7678 44.512L82.9077 55.8391L71.5554 44.512H80.0431V29.6304H58.1342V58.7238L66.8582 50.1389L79.8366 63.1266C79.8366 63.1266 67.1345 75.5155 66.8332 75.5155C66.5323 75.5155 58.1342 67.5066 58.1342 67.5066V84.1965H98.2319V15.9887H58.1342V24.2561H85.4172V44.5118L93.7678 44.512Z" fill="white"/>
</g>
<defs>
<clipPath id="clip0_165_267">
<rect width="100.892" height="100.892" fill="white" transform="translate(0.674316 0.0644531)"/>
</clipPath>
</defs>
</svg>
