<svg width="36" height="36" viewBox="0 0 36 36" fill="none" xmlns="http://www.w3.org/2000/svg">
<path d="M35.3333 17.856C35.3333 15.5578 34.8807 13.2822 34.0012 11.159C33.1217 9.0358 31.8327 7.10661 30.2077 5.48159C28.5827 3.85656 26.6535 2.56752 24.5303 1.68807C22.4071 0.808608 20.1314 0.355957 17.8333 0.355957V3.85596C20.6021 3.85589 23.3088 4.67685 25.6111 6.21501C27.9133 7.75318 29.7078 9.93948 30.7676 12.4975C31.4713 14.1963 31.8334 16.0171 31.8333 17.856H35.3333ZM0.333313 14.356V5.60596C0.333313 5.14183 0.517687 4.69671 0.845876 4.36852C1.17406 4.04033 1.61918 3.85596 2.08331 3.85596H10.8333C11.2974 3.85596 11.7426 4.04033 12.0707 4.36852C12.3989 4.69671 12.5833 5.14183 12.5833 5.60596V12.606C12.5833 13.0701 12.3989 13.5152 12.0707 13.8434C11.7426 14.1716 11.2974 14.356 10.8333 14.356H7.33331C7.33331 18.069 8.80831 21.6299 11.4338 24.2555C14.0593 26.881 17.6203 28.356 21.3333 28.356V24.856C21.3333 24.3918 21.5177 23.9467 21.8459 23.6185C22.1741 23.2903 22.6192 23.106 23.0833 23.106H30.0833C30.5474 23.106 30.9926 23.2903 31.3208 23.6185C31.6489 23.9467 31.8333 24.3918 31.8333 24.856V33.606C31.8333 34.0701 31.6489 34.5152 31.3208 34.8434C30.9926 35.1716 30.5474 35.356 30.0833 35.356H21.3333C9.73606 35.356 0.333313 25.9532 0.333313 14.356Z" fill="#FFAA00"/>
<path d="M27.5336 13.838C28.0614 15.1118 28.3331 16.4771 28.3333 17.856H25.1833C25.1833 15.9066 24.4089 14.0371 23.0305 12.6587C21.6522 11.2803 19.7827 10.506 17.8333 10.506V7.35596C19.91 7.35607 21.9399 7.97195 23.6666 9.12573C25.3932 10.2795 26.7389 11.9194 27.5336 13.838Z" fill="#FFAA00"/>
</svg>
