<svg width="42" height="42" viewBox="0 0 42 42" fill="none" xmlns="http://www.w3.org/2000/svg">
<path d="M23.1416 0.166748C25.4854 0.172998 26.675 0.185498 27.7021 0.214665L28.1062 0.229248C28.5729 0.245915 29.0333 0.266748 29.5896 0.291748C31.8062 0.395915 33.3187 0.745915 34.6458 1.2605C36.0208 1.78966 37.1791 2.50633 38.3375 3.66258C39.3973 4.70369 40.217 5.96356 40.7396 7.35425C41.2542 8.68133 41.6041 10.1938 41.7083 12.4126C41.7333 12.9667 41.7541 13.4272 41.7708 13.8959L41.7833 14.3001C41.8146 15.3251 41.8271 16.5147 41.8312 18.8584L41.8333 20.4126V23.1417C41.8384 24.6613 41.8224 26.1809 41.7854 27.7001L41.7729 28.1042C41.7562 28.573 41.7354 29.0334 41.7104 29.5876C41.6062 31.8063 41.2521 33.3167 40.7396 34.6459C40.217 36.0366 39.3973 37.2965 38.3375 38.3376C37.2964 39.3974 36.0365 40.2171 34.6458 40.7397C33.3187 41.2542 31.8062 41.6042 29.5896 41.7084L28.1062 41.7709L27.7021 41.7834C26.675 41.8126 25.4854 41.8272 23.1416 41.8313L21.5875 41.8334H18.8604C17.3401 41.8388 15.8198 41.8228 14.3 41.7855L13.8958 41.773C13.4013 41.7543 12.9068 41.7327 12.4125 41.7084C10.1958 41.6042 8.68332 41.2542 7.35415 40.7397C5.96421 40.2169 4.70507 39.3971 3.66457 38.3376C2.60404 37.2967 1.78354 36.0368 1.2604 34.6459C0.745818 33.3188 0.395818 31.8063 0.291651 29.5876L0.229151 28.1042L0.218735 27.7001C0.180331 26.1809 0.162968 24.6614 0.166651 23.1417V18.8584C0.160885 17.3388 0.176164 15.8192 0.212485 14.3001L0.227068 13.8959C0.243735 13.4272 0.264568 12.9667 0.289568 12.4126C0.393735 10.1938 0.743734 8.68341 1.25832 7.35425C1.78268 5.96299 2.60462 4.70307 3.66665 3.66258C4.70655 2.60331 5.96496 1.78357 7.35415 1.2605C8.68332 0.745915 10.1937 0.395915 12.4125 0.291748C12.9667 0.266748 13.4292 0.245915 13.8958 0.229248L14.3 0.216748C15.8191 0.179733 17.3387 0.163759 18.8583 0.168831L23.1416 0.166748ZM21 10.5834C18.2373 10.5834 15.5878 11.6809 13.6343 13.6344C11.6808 15.5879 10.5833 18.2374 10.5833 21.0001C10.5833 23.7628 11.6808 26.4123 13.6343 28.3658C15.5878 30.3193 18.2373 31.4167 21 31.4167C23.7627 31.4167 26.4122 30.3193 28.3657 28.3658C30.3192 26.4123 31.4166 23.7628 31.4166 21.0001C31.4166 18.2374 30.3192 15.5879 28.3657 13.6344C26.4122 11.6809 23.7627 10.5834 21 10.5834ZM21 14.7501C21.8207 14.7499 22.6335 14.9115 23.3918 15.2254C24.1502 15.5394 24.8392 15.9997 25.4197 16.5799C26.0002 17.1602 26.4607 17.8491 26.7749 18.6073C27.0891 19.3656 27.2509 20.1783 27.251 20.999C27.2512 21.8198 27.0896 22.6326 26.7757 23.3909C26.4617 24.1492 26.0014 24.8383 25.4212 25.4188C24.8409 25.9992 24.152 26.4597 23.3938 26.7739C22.6355 27.0881 21.8228 27.2499 21.0021 27.2501C19.3445 27.2501 17.7548 26.5916 16.5826 25.4195C15.4105 24.2474 14.7521 22.6577 14.7521 21.0001C14.7521 19.3425 15.4105 17.7528 16.5826 16.5807C17.7548 15.4086 19.3445 14.7501 21.0021 14.7501M31.9396 7.45841C31.2489 7.45841 30.5865 7.73278 30.0981 8.22116C29.6098 8.70953 29.3354 9.37191 29.3354 10.0626C29.3354 10.7532 29.6098 11.4156 30.0981 11.904C30.5865 12.3924 31.2489 12.6667 31.9396 12.6667C32.6302 12.6667 33.2926 12.3924 33.781 11.904C34.2694 11.4156 34.5437 10.7532 34.5437 10.0626C34.5437 9.37191 34.2694 8.70953 33.781 8.22116C33.2926 7.73278 32.6302 7.45841 31.9396 7.45841Z" fill="#FFAA00"/>
</svg>
