<svg width="31" height="25" viewBox="0 0 31 25" fill="none" xmlns="http://www.w3.org/2000/svg">
<path d="M27.1667 21.2726H24.25V8.51221L15.5 13.981L6.75002 8.51221V21.2726H3.83335V3.77262H5.58335L15.5 9.97054L25.4167 3.77262H27.1667M27.1667 0.855957H3.83335C2.2146 0.855957 0.916687 2.15387 0.916687 3.77262V21.2726C0.916687 22.0462 1.22398 22.788 1.77096 23.335C2.31794 23.882 3.05981 24.1893 3.83335 24.1893H27.1667C27.9402 24.1893 28.6821 23.882 29.2291 23.335C29.7761 22.788 30.0834 22.0462 30.0834 21.2726V3.77262C30.0834 2.99908 29.7761 2.25721 29.2291 1.71023C28.6821 1.16325 27.9402 0.855957 27.1667 0.855957Z" fill="#FFAA00"/>
</svg>
