<svg width="83" height="83" viewBox="0 0 83 83" fill="none" xmlns="http://www.w3.org/2000/svg">
<circle cx="41.5" cy="41.5" r="41.5" fill="#D9D9D9"/>
<path d="M43.7476 25C45.66 25.0051 46.6307 25.0153 47.4687 25.0391L47.7985 25.051C48.1793 25.0646 48.555 25.0816 49.0089 25.102C50.8176 25.187 52.0517 25.4726 53.1345 25.8925C54.2565 26.3243 55.2016 26.9091 56.1468 27.8525C57.0115 28.7021 57.6804 29.7301 58.1068 30.8649C58.5267 31.9477 58.8123 33.1819 58.8973 34.9924C58.9177 35.4445 58.9347 35.8202 58.9483 36.2027L58.9585 36.5325C58.984 37.3689 58.9942 38.3396 58.9976 40.252L58.9993 41.5202V43.7471C59.0034 44.9871 58.9904 46.2271 58.9602 47.4667L58.95 47.7964C58.9364 48.1789 58.9194 48.5546 58.899 49.0068C58.814 50.8173 58.525 52.0497 58.1068 53.1343C57.6804 54.2691 57.0115 55.2971 56.1468 56.1466C55.2973 57.0114 54.2693 57.6803 53.1345 58.1067C52.0517 58.5266 50.8176 58.8122 49.0089 58.8972L47.7985 58.9482L47.4687 58.9584C46.6307 58.9822 45.66 58.9941 43.7476 58.9975L42.4795 58.9992H40.2543C39.0138 59.0036 37.7733 58.9905 36.5332 58.9601L36.2034 58.9499C35.7999 58.9346 35.3964 58.917 34.9931 58.8972C33.1844 58.8122 31.9502 58.5266 30.8657 58.1067C29.7315 57.6801 28.7041 57.0112 27.8551 56.1466C26.9898 55.2973 26.3203 54.2692 25.8934 53.1343C25.4735 52.0514 25.188 50.8173 25.103 49.0068L25.052 47.7964L25.0435 47.4667C25.0121 46.2271 24.998 44.9871 25.001 43.7471V40.252C24.9963 39.0121 25.0087 37.7721 25.0384 36.5325L25.0503 36.2027C25.0639 35.8202 25.0809 35.4445 25.1013 34.9924C25.1863 33.1819 25.4718 31.9494 25.8917 30.8649C26.3196 29.7296 26.9902 28.7016 27.8568 27.8525C28.7053 26.9882 29.7321 26.3193 30.8657 25.8925C31.9502 25.4726 33.1827 25.187 34.9931 25.102C35.4452 25.0816 35.8226 25.0646 36.2034 25.051L36.5332 25.0408C37.7727 25.0106 39.0127 24.9976 40.2526 25.0017L43.7476 25ZM42.0001 33.4998C39.7459 33.4998 37.584 34.3953 35.99 35.9893C34.396 37.5833 33.5005 39.7453 33.5005 41.9996C33.5005 44.2539 34.396 46.4158 35.99 48.0098C37.584 49.6039 39.7459 50.4994 42.0001 50.4994C44.2543 50.4994 46.4162 49.6039 48.0102 48.0098C49.6042 46.4158 50.4997 44.2539 50.4997 41.9996C50.4997 39.7453 49.6042 37.5833 48.0102 35.9893C46.4162 34.3953 44.2543 33.4998 42.0001 33.4998ZM42.0001 36.8997C42.6698 36.8996 43.333 37.0314 43.9518 37.2876C44.5705 37.5438 45.1328 37.9193 45.6064 38.3928C46.0801 38.8663 46.4558 39.4285 46.7122 40.0472C46.9686 40.6659 47.1006 41.329 47.1007 41.9987C47.1008 42.6685 46.969 43.3317 46.7128 43.9504C46.4566 44.5692 46.0811 45.1315 45.6076 45.6051C45.1341 46.0788 44.572 46.4545 43.9533 46.7109C43.3346 46.9673 42.6715 47.0994 42.0018 47.0995C40.6493 47.0995 39.3521 46.5622 38.3957 45.6057C37.4394 44.6493 36.9021 43.3522 36.9021 41.9996C36.9021 40.647 37.4394 39.3498 38.3957 38.3934C39.3521 37.437 40.6493 36.8997 42.0018 36.8997M50.9264 30.9499C50.3628 30.9499 49.8223 31.1737 49.4238 31.5722C49.0253 31.9707 48.8015 32.5112 48.8015 33.0748C48.8015 33.6384 49.0253 34.1789 49.4238 34.5774C49.8223 34.9759 50.3628 35.1998 50.9264 35.1998C51.4899 35.1998 52.0304 34.9759 52.4289 34.5774C52.8274 34.1789 53.0513 33.6384 53.0513 33.0748C53.0513 32.5112 52.8274 31.9707 52.4289 31.5722C52.0304 31.1737 51.4899 30.9499 50.9264 30.9499Z" fill="black"/>
</svg>
