<svg width="40" height="41" viewBox="0 0 40 41" fill="none" xmlns="http://www.w3.org/2000/svg">
<path d="M4.42708 0C3.25295 0 2.1269 0.466424 1.29666 1.29666C0.466424 2.1269 0 3.25295 0 4.42708C0 5.60122 0.466424 6.72726 1.29666 7.5575C2.1269 8.38774 3.25295 8.85417 4.42708 8.85417C5.60122 8.85417 6.72726 8.38774 7.5575 7.5575C8.38774 6.72726 8.85417 5.60122 8.85417 4.42708C8.85417 3.25295 8.38774 2.1269 7.5575 1.29666C6.72726 0.466424 5.60122 0 4.42708 0ZM0.260417 12.5C0.19135 12.5 0.125112 12.5274 0.0762741 12.5763C0.0274365 12.6251 0 12.6913 0 12.7604V39.8438C0 39.9875 0.116667 40.1042 0.260417 40.1042H8.59375C8.66282 40.1042 8.72905 40.0767 8.77789 40.0279C8.82673 39.9791 8.85417 39.9128 8.85417 39.8438V12.7604C8.85417 12.6913 8.82673 12.6251 8.77789 12.5763C8.72905 12.5274 8.66282 12.5 8.59375 12.5H0.260417ZM13.8021 12.5C13.733 12.5 13.6668 12.5274 13.6179 12.5763C13.5691 12.6251 13.5417 12.6913 13.5417 12.7604V39.8438C13.5417 39.9875 13.6583 40.1042 13.8021 40.1042H22.1354C22.2045 40.1042 22.2707 40.0767 22.3196 40.0279C22.3684 39.9791 22.3958 39.9128 22.3958 39.8438V25.2604C22.3958 24.2244 22.8074 23.2308 23.5399 22.4983C24.2725 21.7657 25.2661 21.3542 26.3021 21.3542C27.3381 21.3542 28.3317 21.7657 29.0642 22.4983C29.7968 23.2308 30.2083 24.2244 30.2083 25.2604V39.8438C30.2083 39.9875 30.325 40.1042 30.4687 40.1042H38.8021C38.8711 40.1042 38.9374 40.0767 38.9862 40.0279C39.0351 39.9791 39.0625 39.9128 39.0625 39.8438V21.8854C39.0625 16.8292 34.6667 12.875 29.6354 13.3313C28.0789 13.474 26.5542 13.8592 25.1167 14.4729L22.3958 15.6396V12.7604C22.3958 12.6913 22.3684 12.6251 22.3196 12.5763C22.2707 12.5274 22.2045 12.5 22.1354 12.5H13.8021Z" fill="#FFAA00"/>
</svg>
