<svg width="100" height="100" viewBox="0 0 100 100" fill="none" xmlns="http://www.w3.org/2000/svg">
<circle cx="50" cy="50" r="50" fill="#D9D9D9"/>
<path d="M30.78 24C29.247 24 27.7769 24.6048 26.6929 25.6813C25.609 26.7578 25 28.2178 25 29.7403C25 31.2627 25.609 32.7227 26.6929 33.7992C27.7769 34.8757 29.247 35.4805 30.78 35.4805C32.313 35.4805 33.7831 34.8757 34.8671 33.7992C35.951 32.7227 36.56 31.2627 36.56 29.7403C36.56 28.2178 35.951 26.7578 34.8671 25.6813C33.7831 24.6048 32.313 24 30.78 24ZM25.34 40.2078C25.2498 40.2078 25.1633 40.2434 25.0996 40.3067C25.0358 40.37 25 40.4559 25 40.5455V75.6623C25 75.8487 25.1523 76 25.34 76H36.22C36.3102 76 36.3967 75.9644 36.4604 75.9011C36.5242 75.8378 36.56 75.7519 36.56 75.6623V40.5455C36.56 40.4559 36.5242 40.37 36.4604 40.3067C36.3967 40.2434 36.3102 40.2078 36.22 40.2078H25.34ZM43.02 40.2078C42.9298 40.2078 42.8433 40.2434 42.7796 40.3067C42.7158 40.37 42.68 40.4559 42.68 40.5455V75.6623C42.68 75.8487 42.8323 76 43.02 76H53.9C53.9902 76 54.0767 75.9644 54.1404 75.9011C54.2042 75.8378 54.24 75.7519 54.24 75.6623V56.7532C54.24 55.4099 54.7773 54.1217 55.7338 53.1718C56.6902 52.2219 57.9874 51.6883 59.34 51.6883C60.6926 51.6883 61.9898 52.2219 62.9462 53.1718C63.9027 54.1217 64.44 55.4099 64.44 56.7532V75.6623C64.44 75.8487 64.5923 76 64.78 76H75.66C75.7502 76 75.8367 75.9644 75.9004 75.9011C75.9642 75.8378 76 75.7519 76 75.6623V52.3771C76 45.8211 70.2608 40.694 63.692 41.2856C61.6598 41.4708 59.6692 41.9702 57.7923 42.7659L54.24 44.2787V40.5455C54.24 40.4559 54.2042 40.37 54.1404 40.3067C54.0767 40.2434 53.9902 40.2078 53.9 40.2078H43.02Z" fill="black"/>
</svg>
