<svg width="35" height="36" viewBox="0 0 35 36" fill="none" xmlns="http://www.w3.org/2000/svg">
<path d="M12.7604 14.6058C12.7604 13.3488 13.2598 12.1432 14.1486 11.2544C15.0375 10.3656 16.243 9.86621 17.5 9.86621C18.757 9.86621 19.9626 10.3656 20.8514 11.2544C21.7403 12.1432 22.2396 13.3488 22.2396 14.6058C22.2396 15.8628 21.7403 17.0683 20.8514 17.9572C19.9626 18.846 18.757 19.3454 17.5 19.3454C16.243 19.3454 15.0375 18.846 14.1486 17.9572C13.2598 17.0683 12.7604 15.8628 12.7604 14.6058Z" fill="#FFAA00"/>
<path fill-rule="evenodd" clip-rule="evenodd" d="M5.50377 12.9681C5.74634 10.0365 7.08201 7.30315 9.2458 5.31036C11.4096 3.31756 14.2434 2.21092 17.185 2.20996H17.815C20.7566 2.21092 23.5904 3.31756 25.7542 5.31036C27.918 7.30315 29.2537 10.0365 29.4963 12.9681C29.7654 16.2412 28.755 19.4911 26.6773 22.0345L19.6875 30.5833C19.4226 30.9075 19.0889 31.1689 18.7106 31.3483C18.3322 31.5277 17.9187 31.6208 17.5 31.6208C17.0813 31.6208 16.6678 31.5277 16.2895 31.3483C15.9111 31.1689 15.5774 30.9075 15.3125 30.5833L8.32418 22.0345C6.246 19.4914 5.23499 16.2414 5.50377 12.9681ZM17.5 7.67871C15.6628 7.67871 13.9009 8.40853 12.6018 9.70761C11.3027 11.0067 10.5729 12.7686 10.5729 14.6058C10.5729 16.443 11.3027 18.2049 12.6018 19.504C13.9009 20.8031 15.6628 21.5329 17.5 21.5329C19.3372 21.5329 21.0991 20.8031 22.3982 19.504C23.6973 18.2049 24.4271 16.443 24.4271 14.6058C24.4271 12.7686 23.6973 11.0067 22.3982 9.70761C21.0991 8.40853 19.3372 7.67871 17.5 7.67871Z" fill="#FFAA00"/>
</svg>
