<svg width="64" height="63" viewBox="0 0 64 63" fill="none" xmlns="http://www.w3.org/2000/svg">
<path d="M11.9097 0.29834C5.72285 0.29834 0.720703 5.346 0.720703 11.5891V51.1734C0.720703 57.4166 5.72285 62.4642 11.9097 62.4642H52.7167C58.9035 62.4642 63.9057 57.4166 63.9057 51.1734V11.5891C63.9057 5.346 58.9035 0.29834 52.7167 0.29834H11.9097ZM41.6856 13.927H47.03C47.1617 13.9004 47.267 14.0067 47.2933 14.113V39.4575C47.2933 39.9357 47.3196 40.4671 47.346 41.0515C47.3986 41.6094 47.4249 42.1407 47.4513 42.5924C47.4513 42.7783 47.3723 42.9377 47.188 43.0174C45.819 43.6019 44.371 44.027 42.8967 44.2926C41.5803 44.5317 40.2113 44.6646 38.8423 44.6646C36.8941 44.6911 34.9459 44.2926 33.182 43.4691C31.5234 42.6987 30.1544 41.4235 29.2066 39.856C28.2325 38.2355 27.7586 36.2164 27.7586 33.7988C27.7323 31.8329 28.2325 29.8935 29.2066 28.1933C30.207 26.4665 31.655 25.0319 33.3926 24.0755C35.2355 23.0394 37.447 22.5346 40.0534 22.5346C40.185 22.5346 40.3693 22.5346 40.6062 22.5612C40.8432 22.5877 41.1064 22.5877 41.4224 22.6143V14.2192C41.4224 14.0333 41.5013 13.927 41.6856 13.927ZM18.1756 16.2117H23.3093C23.4673 16.1852 23.6253 16.2914 23.6516 16.4774C23.6779 16.504 23.6779 16.5305 23.6779 16.5571V43.8144C23.6779 44.1067 23.5463 44.2395 23.3093 44.2395H18.1492C17.9123 44.2395 17.807 44.1067 17.807 43.8144V16.5571C17.807 16.318 17.9386 16.2117 18.1756 16.2117ZM39.8427 27.476C38.816 27.476 37.7892 27.6885 36.8678 28.1667C35.9727 28.6183 35.2092 29.2825 34.63 30.1326C34.0508 30.9828 33.7612 32.1251 33.7612 33.5066C33.7349 34.4364 33.8928 35.3663 34.2087 36.243C34.472 36.9603 34.8669 37.5979 35.3935 38.1292C35.8937 38.6074 36.4992 38.9793 37.1837 39.1919C37.8945 39.431 38.6317 39.5372 39.3689 39.5372C39.7638 39.5372 40.1323 39.5107 40.4746 39.4841C40.8168 39.5107 41.1328 39.4575 41.4224 39.3513V27.6619C40.9048 27.5382 40.3746 27.4758 39.8427 27.476Z" fill="white"/>
</svg>
