<svg width="59" height="59" viewBox="0 0 59 59" fill="none" xmlns="http://www.w3.org/2000/svg">
<path d="M10.0937 0.109375C7.52597 0.109375 5.06342 1.12939 3.24778 2.94504C1.43213 4.76069 0.412109 7.22323 0.412109 9.79094V48.5172C0.412109 51.0849 1.43213 53.5475 3.24778 55.3631C5.06342 57.1788 7.52597 58.1988 10.0937 58.1988H48.82C51.3877 58.1988 53.8502 57.1788 55.6659 55.3631C57.4815 53.5475 58.5015 51.0849 58.5015 48.5172V9.79094C58.5015 7.22323 57.4815 4.76069 55.6659 2.94504C53.8502 1.12939 51.3877 0.109375 48.82 0.109375H10.0937ZM33.7619 42.2403C36.0855 44.1121 38.4047 45.0351 40.7197 45.0093C42.1397 45.0093 43.2283 44.7489 43.9856 44.2283C44.3382 43.9994 44.6251 43.6826 44.8181 43.3091C45.0111 42.9357 45.1034 42.5184 45.0861 42.0983C45.091 41.6402 44.9953 41.1866 44.8057 40.7695C44.6161 40.3524 44.3373 39.9819 43.9889 39.6844C43.2315 39.0239 41.7987 38.3613 39.6902 37.6965C37.158 36.965 35.2055 36.0183 33.8329 34.8565C32.4861 33.6947 31.7998 32.0736 31.7739 29.9932C31.7739 28.0289 32.6259 26.3841 34.3299 25.0588C35.9865 23.7335 38.1057 23.0708 40.6874 23.0708C44.2847 23.0708 47.1709 23.9465 49.346 25.6978L46.861 29.5672C45.9663 28.8715 44.9398 28.3643 43.8436 28.0762C42.8586 27.7462 41.8293 27.5666 40.7907 27.5437C39.5644 27.5437 38.5822 27.7685 37.8443 28.2182C37.1128 28.67 36.747 29.2617 36.747 29.9932C36.747 30.7978 37.1956 31.4841 38.0928 32.0521C38.9964 32.5986 40.5347 33.2021 42.7077 33.8626C45.3346 34.6435 47.2042 35.6848 48.3165 36.9865C49.4288 38.2881 49.985 39.9447 49.985 41.9563C49.985 44.0153 49.1922 45.7902 47.6065 47.2812C46.0446 48.7485 43.7726 49.5177 40.7907 49.5886C36.8858 49.5886 33.6199 48.4172 30.993 46.0742L33.7619 42.2403ZM15.9155 44.2993C16.6728 44.7726 17.584 45.0093 18.649 45.0093C19.7613 45.0093 20.6842 44.6898 21.4179 44.0508C22.1494 43.3881 22.5162 42.2403 22.5184 40.6074V23.4968H27.3107V41.5304C27.2397 44.323 26.4351 46.3346 24.8968 47.5652C24.0551 48.2768 23.0765 48.8084 22.0214 49.1272C21.0429 49.4251 20.0267 49.5805 19.0039 49.5886C17.229 49.5886 15.6552 49.281 14.2826 48.6657C12.8153 48.0052 11.5846 46.8337 10.5907 45.1513L13.9276 42.4178C14.5407 43.2461 15.2034 43.8733 15.9155 44.2993Z" fill="white"/>
</svg>
