<svg width="58" height="58" viewBox="0 0 58 58" fill="none" xmlns="http://www.w3.org/2000/svg">
<rect x="0.73938" y="0.790039" width="57.0703" height="57.0703" rx="15" fill="white"/>
<path d="M25.7041 29.3251L11.4401 36.4589C11.4401 39.8224 11.4401 40.6107 12.4852 41.6558C13.5303 42.7009 15.2103 42.7009 18.5739 42.7009H32.8414C36.205 42.7009 37.885 42.7009 38.9301 41.6558C39.9752 40.6107 39.9752 39.8224 39.9752 36.4589M25.7041 29.3251L47.1019 18.6244M25.7041 29.3251L11.4401 22.1913C11.4401 19.7194 11.4401 18.0394 12.4852 16.9943C13.5303 15.9492 15.2103 15.9492 18.5739 15.9492H32.8414C36.205 15.9492 37.885 15.9492 38.9301 16.9943C39.9752 18.0394 39.9752 19.7194 39.9752 22.1913M25.7041 29.3251L47.1019 40.0258" stroke="#300054" stroke-width="3.125" stroke-linecap="round" stroke-linejoin="round"/>
</svg>
