<svg width="53" height="57" viewBox="0 0 53 57" fill="none" xmlns="http://www.w3.org/2000/svg">
<path fill-rule="evenodd" clip-rule="evenodd" d="M52.9357 15.1237L26.9483 0.109375L0.960938 15.1237V41.1463L4.98298 43.4699L13.207 40.1765C14.3137 39.7328 15.2614 38.9721 15.9288 37.9918C16.5962 37.0116 16.9529 35.8564 16.9532 34.6743V14.2805H20.9512V34.6743C20.9509 36.6449 20.3564 38.5706 19.2438 40.2046C18.1312 41.8386 16.5512 43.1065 14.7063 43.8459L9.34886 45.9914L26.9483 56.1606L52.9357 41.1502V15.1237ZM24.9493 22.1973C24.9493 20.0977 25.7917 18.084 27.2913 16.5993C28.7909 15.1146 30.8247 14.2805 32.9454 14.2805H37.6111C41.6572 14.2805 44.9396 17.5264 44.9396 21.5363V22.1973H40.9415V21.5363C40.9415 21.1033 40.8554 20.6745 40.688 20.2744C40.5206 19.8744 40.2753 19.5109 39.9661 19.2047C39.6568 18.8985 39.2897 18.6556 38.8856 18.4899C38.4815 18.3242 38.0485 18.2389 37.6111 18.2389H32.9454C31.885 18.2389 30.8681 18.656 30.1183 19.3983C29.3686 20.1407 28.9473 21.1475 28.9473 22.1973C28.9473 23.2472 29.3686 24.254 30.1183 24.9964C30.8681 25.7387 31.885 26.1558 32.9454 26.1558H36.9435C39.0642 26.1558 41.098 26.9899 42.5976 28.4746C44.0971 29.9592 44.9396 31.9729 44.9396 34.0726C44.9396 36.1723 44.0971 38.186 42.5976 39.6706C41.098 41.1553 39.0642 41.9894 36.9435 41.9894H32.9454C30.8247 41.9894 28.7909 41.1553 27.2913 39.6706C25.7917 38.186 24.9493 36.1723 24.9493 34.0726H28.9473C28.9473 35.1224 29.3686 36.1293 30.1183 36.8716C30.8681 37.614 31.885 38.031 32.9454 38.031H36.9435C38.0038 38.031 39.0207 37.614 39.7705 36.8716C40.5203 36.1293 40.9415 35.1224 40.9415 34.0726C40.9415 33.0228 40.5203 32.0159 39.7705 31.2736C39.0207 30.5312 38.0038 30.1142 36.9435 30.1142H32.9454C30.8247 30.1142 28.7909 29.2801 27.2913 27.7954C25.7917 26.3107 24.9493 24.297 24.9493 22.1973Z" fill="white"/>
</svg>
