<svg width="108" height="105" viewBox="0 0 108 105" fill="none" xmlns="http://www.w3.org/2000/svg">
<g filter="url(#filter0_d_165_214)">
<path d="M23.1554 1.99268C13.7755 1.99268 6.19189 9.52328 6.19189 18.8373V77.8873C6.19189 87.2013 13.7755 94.7319 23.1554 94.7319H85.025C94.4048 94.7319 101.988 87.2013 101.988 77.8873V18.8373C101.988 9.52328 94.4048 1.99268 85.025 1.99268H23.1554ZM40.5193 25.5743C43.7921 25.5743 46.5065 25.9696 48.7413 26.8019C50.7452 27.478 52.5723 28.5885 54.0902 30.053C55.3761 31.3342 56.37 32.8747 57.0045 34.5703C57.6032 36.2349 57.9213 37.9388 57.9213 39.7222C57.9213 43.1306 57.123 45.9445 55.5264 48.1639C53.9308 50.3828 51.696 52.0481 49.1013 52.9993C46.3868 53.9906 43.3932 54.3465 40.1203 54.3465C39.1624 54.3465 38.5225 54.3465 38.1236 54.3071C37.7247 54.2677 37.1656 54.2677 36.4075 54.2677V66.9897C36.4472 67.2668 36.2481 67.5054 35.9689 67.5448H28.2251C27.9063 67.5448 27.7476 67.385 27.7476 67.0283V26.2476C27.7476 25.9704 27.8674 25.8106 28.1465 25.8106C28.8253 25.8106 29.4637 25.8106 30.3813 25.772C31.3392 25.7318 32.3369 25.7333 33.4146 25.6932C34.4923 25.6538 35.6501 25.6531 36.8872 25.6137C38.1251 25.5736 39.3218 25.5743 40.5193 25.5743ZM41.4099 33.3799C41.2061 33.376 41.0022 33.3765 40.7984 33.3813C39.7611 33.3813 38.8428 33.3821 38.0839 33.4222C37.2861 33.3821 36.7278 33.4215 36.4486 33.4609V46.7773C37.007 46.8174 37.5249 46.856 38.0038 46.856H40.1203C41.677 46.856 43.2337 46.6182 44.7104 46.1427C45.9879 45.786 47.1053 45.0325 47.9832 44.0419C48.8214 43.0506 49.221 41.7041 49.221 39.96C49.2578 38.7219 48.9396 37.4988 48.3035 36.4333C47.6247 35.4033 46.666 34.6097 45.5082 34.1742C44.2157 33.6541 42.8318 33.4074 41.4099 33.3799ZM74.8863 35.4033C76.5231 35.4033 78.1995 35.5207 79.8355 35.7585C81.033 35.9168 82.19 36.2356 83.2677 36.6718C83.4279 36.7112 83.5873 36.8687 83.6666 37.027C83.707 37.1853 83.7475 37.3443 83.7475 37.5026V43.9631C83.7479 44.04 83.7301 44.1159 83.6955 44.1847C83.6609 44.2535 83.6105 44.3133 83.5484 44.3592C83.1891 44.4387 82.9893 44.4387 82.8299 44.3592C81.6325 43.7253 80.3542 43.2899 78.9966 43.0127C77.5199 42.6954 76.0433 42.4962 74.527 42.4962C73.7285 42.4561 72.8895 42.5765 72.1314 42.7742C71.612 42.8931 71.1734 43.171 70.8943 43.5671C70.6952 43.8844 70.5754 44.2804 70.5754 44.6371C70.5754 44.9938 70.7356 45.3505 70.9751 45.6671C71.3343 46.1033 71.8126 46.4607 72.3312 46.7386C73.2568 47.2136 74.2024 47.6492 75.1654 48.0443C77.3209 48.7576 79.3962 49.7497 81.3121 50.9386C82.6293 51.7709 83.707 52.8811 84.4652 54.2284C85.1073 55.4924 85.4231 56.895 85.3842 58.3102C85.4166 60.1836 84.8731 62.0223 83.826 63.581C82.7131 65.1629 81.1599 66.3885 79.3565 67.1078C77.4002 67.9401 75.0053 68.3763 72.1314 68.3763C70.2948 68.3763 68.5001 68.218 66.7039 67.8613C65.2961 67.6198 63.9269 67.1933 62.6325 66.5928C62.3534 66.4346 62.1528 66.1566 62.1925 65.8393V58.9441C62.1925 58.8252 62.2322 58.6662 62.3519 58.5874C62.4716 58.5079 62.5914 58.5488 62.7111 58.6275C64.2486 59.5281 65.919 60.1836 67.6611 60.57C69.1782 60.9661 70.7753 61.1637 72.3724 61.1637C73.8886 61.1637 74.9664 60.9653 75.6848 60.6086C76.3232 60.3315 76.7618 59.6575 76.7618 58.9441C76.7618 58.3897 76.443 57.8733 75.8038 57.3576C75.1654 56.8426 73.8482 56.2488 71.8926 55.4961C69.8859 54.7944 67.9803 53.8351 66.2242 52.6426C64.9734 51.7576 63.9371 50.6069 63.1909 49.2741C62.5539 48.0224 62.2387 46.6336 62.2733 45.2316C62.2733 43.5277 62.7515 41.9025 63.6294 40.4364C64.6271 38.8513 66.1052 37.5828 67.822 36.7907C69.6975 35.8395 72.0513 35.4033 74.8863 35.4033Z" fill="white"/>
</g>
<defs>
<filter id="filter0_d_165_214" x="0.191895" y="-0.00732422" width="107.797" height="104.739" filterUnits="userSpaceOnUse" color-interpolation-filters="sRGB">
<feFlood flood-opacity="0" result="BackgroundImageFix"/>
<feColorMatrix in="SourceAlpha" type="matrix" values="0 0 0 0 0 0 0 0 0 0 0 0 0 0 0 0 0 0 127 0" result="hardAlpha"/>
<feOffset dy="4"/>
<feGaussianBlur stdDeviation="3"/>
<feComposite in2="hardAlpha" operator="out"/>
<feColorMatrix type="matrix" values="0 0 0 0 0 0 0 0 0 0 0 0 0 0 0 0 0 0 0.25 0"/>
<feBlend mode="normal" in2="BackgroundImageFix" result="effect1_dropShadow_165_214"/>
<feBlend mode="normal" in="SourceGraphic" in2="effect1_dropShadow_165_214" result="shape"/>
</filter>
</defs>
</svg>
