<svg width="60" height="59" viewBox="0 0 60 59" fill="none" xmlns="http://www.w3.org/2000/svg">
<path d="M45.4159 0.109375H14.5559C7.03667 0.109375 0.941162 6.20489 0.941162 13.7241V44.5841C0.941162 52.1033 7.03667 58.1988 14.5559 58.1988H45.4159C52.9351 58.1988 59.0306 52.1033 59.0306 44.5841V13.7241C59.0306 6.20489 52.9351 0.109375 45.4159 0.109375Z" fill="white"/>
<path d="M12.0957 22.8558H18.5418C20.4338 22.8718 21.8048 23.417 22.6548 24.4914C23.5046 25.5656 23.7852 27.0328 23.4966 28.893C23.3844 29.7428 23.1358 30.5767 22.751 31.3945C22.3822 32.2123 21.8691 32.9499 21.2116 33.6073C20.4099 34.441 19.552 34.9701 18.638 35.1948C17.7238 35.4193 16.7778 35.5315 15.7998 35.5315H12.9134L11.9994 40.1015H8.65613L12.0957 22.8558ZM14.9098 25.5978L13.4667 32.8136C13.5629 32.8296 13.6591 32.8376 13.7553 32.8376H14.092C15.6315 32.8537 16.9144 32.7013 17.9405 32.3806C18.9667 32.0439 19.6562 30.8733 20.009 28.8689C20.2976 27.1853 20.009 26.2151 19.1431 25.9586C18.2932 25.7022 17.2269 25.5819 15.9441 25.5978C15.7518 25.6138 15.5674 25.6218 15.3909 25.6218H14.8858L14.9098 25.5978ZM27.3051 18.2617H30.6244L29.6863 22.8558H32.6688C34.3043 22.888 35.5229 23.2247 36.3248 23.866C37.1426 24.5074 37.3832 25.7261 37.0464 27.522L35.4349 35.5315H32.0675L33.6069 27.8828C33.7671 27.081 33.719 26.5118 33.4626 26.175C33.2062 25.8383 32.653 25.6699 31.8029 25.6699L29.1331 25.6459L27.1608 35.5315H23.8415L27.3051 18.2617ZM40.6108 22.8558H47.0569C48.9489 22.8718 50.3199 23.417 51.1699 24.4914C52.0197 25.5656 52.3003 27.0328 52.0117 28.893C51.8995 29.7428 51.6509 30.5767 51.2661 31.3945C50.8973 32.2123 50.3841 32.9499 49.7267 33.6073C48.925 34.441 48.0671 34.9701 47.1531 35.1948C46.2389 35.4193 45.2929 35.5315 44.3149 35.5315H41.4285L40.5145 40.1015H37.1712L40.6108 22.8558ZM43.4249 25.5978L41.9818 32.8136C42.078 32.8296 42.1742 32.8376 42.2704 32.8376H42.6071C44.1466 32.8537 45.4295 32.7013 46.4556 32.3806C47.4818 32.0439 48.1713 30.8733 48.5241 28.8689C48.8127 27.1853 48.5241 26.2151 47.6582 25.9586C46.8083 25.7022 45.742 25.5819 44.4592 25.5978C44.2668 25.6138 44.0824 25.6218 43.906 25.6218H43.4009L43.4249 25.5978Z" fill="#300154"/>
</svg>
