<svg width="60" height="60" viewBox="0 0 60 60" fill="none" xmlns="http://www.w3.org/2000/svg">
<path d="M44.7144 0.516602H15.4149C11.5295 0.516602 7.80331 2.06005 5.05595 4.80741C2.30859 7.55477 0.765137 11.281 0.765137 15.1663V44.4658C0.765137 48.3512 2.30859 52.0774 5.05595 54.8248C7.80331 57.5721 11.5295 59.1156 15.4149 59.1156H44.7144C48.5997 59.1156 52.3259 57.5721 55.0733 54.8248C57.8207 52.0774 59.3641 48.3512 59.3641 44.4658V15.1663C59.3641 11.281 57.8207 7.55477 55.0733 4.80741C52.3259 2.06005 48.5997 0.516602 44.7144 0.516602ZM29.6544 31.4862C28.1517 33.1815 26.0524 34.2311 23.7945 34.4161C22.3296 34.5919 20.8646 34.4161 19.3996 34.6505H18.3448V42.1805C18.3448 42.7665 18.3448 42.8544 17.7295 42.8544H13.569C13.1295 42.8544 12.9537 42.7079 12.9537 42.2391V17.481C12.9537 17.1001 12.9537 16.895 13.4811 16.895H21.5678C23.494 16.8316 25.406 17.2442 27.1347 18.0963C28.4847 18.7357 29.6271 19.7429 30.4304 21.0024C31.2337 22.2618 31.6655 23.7223 31.6761 25.2161C31.7768 26.3434 31.6498 27.4794 31.3024 28.5566C30.9551 29.6337 30.3947 30.63 29.6544 31.4862ZM47.0583 27.7065C47.0583 28.1167 46.8239 28.2046 46.4723 28.2046C45.0188 28.163 43.5724 28.4223 42.2239 28.9664L41.843 29.1422C41.4672 29.2619 41.1448 29.5087 40.9309 29.8401C40.7171 30.1715 40.6252 30.567 40.671 30.9588V42.1512C40.671 42.8251 40.671 42.8544 39.9972 42.8544H35.7487C35.1334 42.8544 35.0748 42.8544 35.0748 42.1805V26.974C35.0748 25.8607 35.0748 24.7473 34.9283 23.6339C34.9283 23.253 34.9283 23.0772 35.4264 23.1065H39.3233C39.4186 23.0896 39.5165 23.0935 39.6102 23.1179C39.7039 23.1422 39.7913 23.1865 39.8664 23.2477C39.9415 23.3088 40.0025 23.3855 40.0453 23.4723C40.0881 23.5592 40.1116 23.6543 40.1143 23.7511C40.1143 24.3371 40.3194 24.9524 40.4073 25.4505C41.2863 24.8352 42.136 24.1613 43.0736 23.6046C44.1346 22.9977 45.338 22.6842 46.5602 22.6963C46.9118 22.6963 47.0876 22.6963 47.0876 23.1944L47.0583 27.7065Z" fill="white"/>
</svg>
