<svg width="59" height="59" viewBox="0 0 59 59" fill="none" xmlns="http://www.w3.org/2000/svg">
<path fill-rule="evenodd" clip-rule="evenodd" d="M29.4959 0.109375C13.4806 0.109375 0.451172 13.1388 0.451172 29.1541C0.451172 45.1693 13.4806 58.1988 29.4959 58.1988C45.5111 58.1988 58.5406 45.1693 58.5406 29.1541C58.5406 13.1388 45.5111 0.109375 29.4959 0.109375ZM29.4959 56.8685C14.2155 56.8685 1.78432 44.4345 1.78432 29.1541C1.78432 13.8737 14.2155 1.43962 29.4959 1.43962C44.7763 1.43962 57.2103 13.8708 57.2103 29.1541C57.2103 44.4316 44.7792 56.8685 29.4959 56.8685ZM4.58133 29.1541C4.58108 33.833 5.89807 38.4174 8.38157 42.3828C10.8651 46.3482 14.4148 49.5344 18.6244 51.5766L6.73645 19.0175C5.3132 22.2072 4.57884 25.6613 4.58133 29.1541ZM46.3186 27.8994C46.3186 24.8206 45.2091 22.6887 44.2622 21.0274C42.9988 18.9739 41.8137 17.237 41.8137 15.1836C41.8137 12.8949 43.5506 10.763 45.9962 10.763C46.1085 10.7649 46.2169 10.7717 46.3215 10.7833C41.7334 6.56634 35.7275 4.22848 29.4959 4.23372C25.3663 4.23192 21.3012 5.25758 17.6668 7.21828C14.0323 9.17898 10.9428 12.0131 8.67663 15.4653C9.26334 15.4827 9.81519 15.4944 10.2828 15.4944C12.8881 15.4944 16.9224 15.1778 16.9224 15.1778C18.2643 15.0993 18.424 17.0715 17.0822 17.2312C17.0822 17.2312 15.7316 17.391 14.23 17.4694L23.3035 44.4577L28.7552 28.1056L24.8749 17.4694C23.533 17.391 22.2608 17.2312 22.2608 17.2312C20.919 17.1528 21.0758 15.0993 22.4206 15.1778C22.4206 15.1778 26.5333 15.4973 28.9818 15.4973C31.5871 15.4973 35.6214 15.1778 35.6214 15.1778C36.9662 15.0993 37.123 17.0715 35.7812 17.2312C35.7812 17.2312 34.4306 17.391 32.929 17.4694L41.9328 44.2515L44.422 35.9476C45.4966 32.5 46.3157 30.0254 46.3157 27.8935M29.9345 31.3295L22.4583 53.055C27.4774 54.5352 32.8353 54.3959 37.7707 52.6571C37.703 52.546 37.6429 52.4305 37.5906 52.3114L29.9345 31.3295ZM51.3607 17.1964C51.4711 17.9903 51.5273 18.8442 51.5292 19.7581C51.5292 22.285 51.0558 25.1285 49.6326 28.6836L42.0229 50.6878C45.7927 48.4978 48.9211 45.3559 51.0951 41.5768C53.2691 37.7977 54.4123 33.5139 54.4104 29.1541C54.417 24.9759 53.368 20.8609 51.3607 17.1964Z" fill="white"/>
</svg>
