<svg width="64" height="62" viewBox="0 0 64 62" fill="none" xmlns="http://www.w3.org/2000/svg">
<path d="M11.4294 0.317383C5.2427 0.317383 0.240723 5.28262 0.240723 11.4237V50.3578C0.240723 56.4989 5.2427 61.4641 11.4294 61.4641H52.237C58.4237 61.4641 63.4257 56.4989 63.4257 50.3578V11.4237C63.4257 5.28262 58.4237 0.317383 52.237 0.317383H11.4294ZM48.4721 13.7226H53.8162C53.948 13.6967 54.0531 13.801 54.0793 13.9054V38.834C54.0793 39.3043 54.1059 39.8276 54.1326 40.4023C54.1849 40.9511 54.2116 41.4729 54.2377 41.9173C54.2377 42.1 54.1587 42.2573 53.9741 42.3357C52.5952 42.911 51.1559 43.3317 49.683 43.59C48.3403 43.8252 46.9976 43.9555 45.6288 43.9555C43.6809 43.9815 41.7325 43.5905 39.9683 42.7806C38.3097 42.0226 36.9403 40.7678 35.9926 39.2264C35.0181 37.6321 34.5452 35.6463 34.5452 33.2685C34.5183 31.3348 35.0184 29.4298 35.9926 27.755C36.9927 26.0563 38.441 24.6458 40.1786 23.705C42.0218 22.6859 44.2333 22.1891 46.8396 22.1891C46.9714 22.1891 47.1556 22.1891 47.3925 22.2151C47.6295 22.241 47.8931 22.2415 48.209 22.268V14.0102C48.209 13.8275 48.288 13.7231 48.4721 13.7231V13.7226ZM9.92925 15.996H15.9047C16.0365 15.996 16.1688 16.0225 16.2739 16.0485C16.3795 16.1009 16.4585 16.1793 16.5375 16.2836C17.0376 17.4076 17.6161 18.5306 18.2218 19.6546C18.8536 20.778 19.4598 21.8755 20.1183 22.973C20.7421 24.06 21.3302 25.1667 21.8816 26.2915H21.9344C22.4839 25.1575 23.0544 24.0337 23.6458 22.9206C24.2321 21.8177 24.8286 20.7201 25.4352 19.6281C26.0409 18.5306 26.62 17.4071 27.1995 16.3356C27.2261 16.2312 27.2785 16.1264 27.3574 16.0744C27.4631 16.022 27.5682 15.9965 27.7 16.0225H33.2554C33.2865 16.0156 33.3186 16.0148 33.35 16.0202C33.3814 16.0257 33.4114 16.0372 33.4383 16.0542C33.4651 16.0712 33.4884 16.0933 33.5066 16.1192C33.5249 16.1451 33.5378 16.1744 33.5446 16.2053C33.5708 16.2317 33.518 16.3361 33.4657 16.388L25.5675 29.3229L33.9919 43.0417C34.0447 43.1466 34.0709 43.2504 34.0447 43.3553C34.0185 43.4597 33.9124 43.3817 33.7544 43.4077H27.7262C27.3051 43.4077 27.0154 43.3818 26.8312 43.1206C26.2784 42.0231 25.6988 40.9511 25.146 39.8536C24.5931 38.782 23.9874 37.6855 23.3556 36.5615C22.7181 35.4323 22.0863 34.3 21.46 33.1647H21.4082C20.8553 34.2881 20.2491 35.4111 19.6439 36.5351C19.0383 37.6586 18.4326 38.782 17.8535 39.8795C17.2478 40.977 16.6427 42.101 16.037 43.1721C15.9318 43.4337 15.721 43.4601 15.4313 43.4601H9.63949C9.53435 43.4601 9.45536 43.5126 9.45536 43.3818C9.4435 43.3327 9.44207 43.2818 9.45117 43.2322C9.46026 43.1826 9.47968 43.1354 9.50818 43.0937L17.6956 29.7673L9.71847 16.3615C9.63949 16.2567 9.61382 16.1523 9.66664 16.1004C9.71896 16.022 9.82411 15.996 9.92925 15.996ZM46.6289 27.0495C45.6021 27.0495 44.5754 27.2587 43.6542 27.7291C42.7547 28.1741 41.9845 28.8398 41.4166 29.6629C40.8376 30.4993 40.5478 31.6228 40.5478 32.9819C40.5253 33.8988 40.677 34.8116 40.995 35.6728C41.2586 36.3783 41.6535 37.0054 42.1798 37.5282C42.6871 38.0091 43.2997 38.3668 43.9697 38.5733C44.6805 38.8085 45.418 38.9128 46.1555 38.9128C46.5504 38.9128 46.9191 38.8874 47.2612 38.8614C47.6033 38.8874 47.8931 38.8344 48.209 38.7301V27.2322C47.9742 27.1767 47.7366 27.1333 47.4972 27.1024C47.2079 27.076 46.9186 27.0495 46.6289 27.0495Z" fill="white"/>
</svg>
